HIERARCHY
ROOT pelvis
{
  OFFSET 0 100 0
  CHANNELS 6 Xposition Yposition Zposition Zrotation Xrotation Yrotation
  JOINT pelvis_right_femur
  {
    OFFSET -10.78128 -3.44521 -0.5502486
    CHANNELS 3 Zrotation Xrotation Yrotation
    JOINT right_femur_tibia
    {
      OFFSET -0.8047443 -44.0398 -0.1307829
      CHANNELS 3 Zrotation Xrotation Yrotation
      JOINT right_tibia_foot
      {
        OFFSET 3.006224 -47.83518 -5
        CHANNELS 3 Zrotation Xrotation Yrotation
        End Site
        {
          OFFSET 0 -5 15
        }
      }
    }
  }
  JOINT pelvis_left_femur
  {
    OFFSET 10.78128 -3.44521 -0.5502486
    CHANNELS 3 Zrotation Xrotation Yrotation
    JOINT left_femur_tibia
    {
      OFFSET 0.8047443 -44.0398 -0.1307829
      CHANNELS 3 Zrotation Xrotation Yrotation
      JOINT left_tibia_foot
      {
        OFFSET -4.370144 -48.10324 -4.275266
        CHANNELS 3 Zrotation Xrotation Yrotation
        End Site
        {
          OFFSET 0 -5 15
        }
      }
    }
  }
  JOINT pelvis_spine1
  {
    OFFSET 0 6.468898 -3.129235
    CHANNELS 3 Zrotation Xrotation Yrotation
    JOINT spine1
    {
      OFFSET 0 23.15396 4.99043
      CHANNELS 3 Zrotation Xrotation Yrotation
      JOINT spine2
      {
        OFFSET 0 20.79997 -5.064912
        CHANNELS 3 Zrotation Xrotation Yrotation
        JOINT neck
        {
          OFFSET 0 14.38658 9.616178
          CHANNELS 3 Zrotation Xrotation Yrotation
          End Site
          {
            OFFSET 0 20 0
          }
        }
      }
      JOINT right_manubrium
      {
        OFFSET -5.722621 16.35077 3.967754
        CHANNELS 3 Zrotation Xrotation Yrotation
        JOINT right_clavicle
        {
          OFFSET -13.16364 1.694482 -4.693211
          CHANNELS 3 Zrotation Xrotation Yrotation
          JOINT right_humerus
          {
            OFFSET -28.5034 -0.3100689 -2.792744
            CHANNELS 3 Zrotation Xrotation Yrotation
            JOINT right_radius
            {
              OFFSET -25.15693 0.02248979 -1.271978
              CHANNELS 3 Zrotation Xrotation Yrotation
              End Site
              {
                OFFSET -15 0 0
              }
            }
          }
        }
      }
      JOINT left_manubrium
      {
        OFFSET 5.722621 16.35077 3.967754
        CHANNELS 3 Zrotation Xrotation Yrotation
        JOINT left_clavicle
        {
          OFFSET 13.16364 1.694482 -4.693211
          CHANNELS 3 Zrotation Xrotation Yrotation
          JOINT left_humerus
          {
            OFFSET 29.39168 -1.063119 -2.237045
            CHANNELS 3 Zrotation Xrotation Yrotation
            JOINT left_radius
            {
              OFFSET 24.59957 -0.9528479 0.9047498
              CHANNELS 3 Zrotation Xrotation Yrotation
              End Site
              {
                OFFSET 15 -0 -0
              }
            }
          }
        }
      }
    }
  }
}
MOTION
Frames: 23
Frame Time: 0.0416666666667
0 103.5113 0 1.111241 -3.485255 0.06503553 1.917302 -12.02419 7.330414 -0 41.12314 -0 -6.245976 -16.73868 -4.187951 -6.199648 12.60882 -23.8098 -0 6.14493 -0 1.729778 -18.09072 23.94991 -2.497851 -2.805786 3.574802 0.380449 8.514636 -8.078181 0.870656 21.71952 10.06886 6.306911 -21.31063 9.490871 7.564008 -18.19763 10.53504 89.34048 38.09448 -25.30927 -0 0 15.90933 -7.360649 9.289929 2.802122 7.524061 -21.64158 -2.650907 -100.8342 42.80482 28.17466 0 0 -24.53459 -10.06156 16.29621 27.67816
0.1062618 103.6452 1.351906 0.2424434 -2.358996 -0.0195966 3.464188 -14.88511 8.712073 -0 42.88229 -0 -6.623572 -16.18929 -4.945166 -5.575181 12.70686 -24.30997 -0 6.132675 -0 0.1884935 -19.65533 23.99409 -2.361062 -2.679133 3.593138 0.42187 8.434704 -8.05018 0.9039867 21.74258 9.913012 6.24208 -21.48069 9.392648 7.451717 -18.11555 10.5274 89.2639 38.00548 -25.1545 -0 0 15.73712 -7.455832 9.323477 2.892225 7.492026 -21.6601 -2.632101 -100.5045 42.55265 27.81792 0 0 -24.59977 -9.806071 16.4339 27.48783
0.2824311 103.4243 3.262298 -0.2237634 -0.5774723 -0.02274625 4.334942 -21.47971 7.411381 -0 35.6126 -0 -6.560553 -12.64449 -4.1792 -5.638709 12.39001 -21.92355 -0 5.841995 -0 1.92633 -20.95191 22.83767 -0.8693467 -0.2286927 4.723889 1.283147 7.83402 -6.955932 1.292476 22.43283 7.129576 4.238505 -23.12793 7.772694 5.436199 -17.89209 11.02951 86.3939 37.4446 -19.95657 -0 0 13.93425 -12.30869 11.42253 6.504981 5.484749 -20.49669 -2.392487 -94.76145 35.4842 23.28489 0 0 -23.4447 -3.90676 15.7873 21.79678
0.4672727 103.0633 5.331196 -0.5672308 0.7571309 0.00966133 5.307353 -24.81689 7.871788 -0 32.87158 -0 -6.376013 -11.61785 -4.118005 -5.634986 12.28364 -21.61928 -0 5.798308 -0 2.358019 -22.12619 22.75793 -1.338964 -0.4133297 4.16786 1.873768 7.460605 -7.212771 1.117096 22.65524 6.965757 4.10958 -23.87917 7.599724 5.698867 -17.72507 11.14337 86.22963 37.36952 -20.03903 -0 0 13.45492 -10.98359 10.07556 6.572516 5.127537 -20.20905 -2.479276 -94.73942 35.80855 22.85432 0 0 -22.84396 -4.14476 16.1162 21.57299
0.6694752 102.5265 7.677905 -0.786155 1.891899 0.1011307 5.971133 -28.11643 7.772447 -0 29.01607 -0 -6.210208 -10.09264 -3.798277 -5.692785 12.37056 -20.95126 -0 6.033801 -0 3.102741 -23.00825 22.40111 -2.099894 -0.8368088 3.236786 2.675599 6.848069 -7.611798 0.8906824 22.9401 6.908081 4.00763 -24.8654 7.542622 6.08315 -17.43855 11.2716 86.05414 36.90594 -20.30876 -0 0 13.02384 -9.000329 8.13652 6.529601 4.685806 -19.66884 -2.639045 -95.09324 36.6328 22.58121 0 0 -21.66287 -5.213155 16.80398 21.77593
0.8814608 101.8702 10.27616 -1.009398 2.825386 0.2622576 6.617703 -30.73943 7.740415 -0 25.89104 -0 -6.18412 -8.711951 -3.453541 -5.68476 12.58482 -20.61547 -0 6.525978 -0 3.354308 -23.79623 21.95959 -2.377381 -0.8986243 2.823313 3.150139 6.46959 -7.739011 0.7998188 23.09541 6.758177 3.838166 -25.47295 7.454234 6.136966 -17.23487 11.39398 85.74362 36.50156 -20.08023 -0 0 12.73767 -8.350641 7.343505 6.74968 4.300858 -19.24833 -2.708428 -95.00365 36.45982 22.28559 0 0 -20.79165 -5.436122 17.07413 21.45851
1.096783 101.1152 13.2144 -1.220423 3.548473 0.5203201 7.103856 -33.04332 7.402939 -0 22.67217 -0 -6.269058 -7.111605 -3.042187 -5.603829 13.02488 -20.14798 -0 7.425886 -0 3.211779 -24.3483 21.0818 -2.435558 -0.7638217 2.60634 3.527403 6.204332 -7.765793 0.7436859 23.19492 6.586907 3.643302 -25.93282 7.333392 6.066715 -17.02096 11.53686 85.43433 36.14511 -19.7226 -0 0 12.38714 -8.248916 7.041901 7.085855 3.898476 -18.89308 -2.765058 -94.65739 35.8125 21.88579 0 0 -20.09984 -5.231102 17.0132 20.8638
1.304354 100.3132 16.57171 -1.451018 4.060017 0.8984257 7.465837 -34.77571 6.846349 -0 19.72138 -0 -6.479554 -5.502684 -2.633366 -5.410691 13.66623 -19.6334 -0 8.856274 -0 2.355998 -24.60867 19.66928 -2.40843 -0.5724303 2.465521 3.8252 6.023775 -7.767871 0.6944874 23.24346 6.469192 3.485523 -26.25571 7.223829 5.972208 -16.80943 11.67486 85.20248 35.82837 -19.42388 -0 0 12.03524 -8.372914 6.978101 7.416831 3.53791 -18.60985 -2.830299 -94.26839 35.09614 21.50106 0 0 -19.58758 -4.972635 16.76684 20.30797
1.48697 99.53641 20.46737 -1.708662 4.325258 1.407916 7.667386 -35.67693 6.033737 -0 17.13261 -0 -6.782866 -4.030672 -2.31647 -5.066164 14.49942 -18.92437 -0 11.11604 -0 0.5324447 -24.3126 17.50878 -2.340159 -0.3397813 2.346598 4.083347 5.905336 -7.767209 0.6366971 23.2516 6.40665 3.358117 -26.46575 7.116214 5.868856 -16.58384 11.81754 85.03608 35.50781 -19.19039 -0 0 11.65662 -8.688778 7.087204 7.772874 3.185485 -18.36139 -2.928474 -93.82461 34.34251 21.09982 0 0 -19.2076 -4.767156 16.33085 19.84606
1.622749 98.89458 25.00806 -2.010858 4.315414 2.018068 7.743014 -35.28589 5.077007 -0 15.31019 -0 -7.159496 -3.059607 -2.205889 -4.543274 15.33917 -17.95277 -0 14.59095 -0 -2.453759 -23.08595 14.5903 -2.219557 -0.05657955 2.278568 4.272971 5.891426 -7.758143 0.5711032 23.21101 6.396503 3.264826 -26.50719 6.994894 5.761344 -16.35764 11.95981 84.94776 35.2279 -19.02901 -0 0 11.24492 -9.28882 7.444054 8.176754 2.859799 -18.18538 -3.06922 -93.27863 33.53632 20.64919 0 0 -19.05885 -4.583202 15.65204 19.49656
1.68519 98.51577 30.24559 -2.34171 3.956342 2.609685 7.739019 -33.2181 4.154087 -0 14.62158 -0 -7.601311 -3.012831 -2.438738 -3.872594 15.84464 -16.56485 -0 19.81184 -0 -6.252812 -20.46416 11.32949 -2.050753 0.2709711 2.281602 4.372136 6.022328 -7.740036 0.4979255 23.11578 6.435285 3.205456 -26.32397 6.847311 5.662487 -16.13864 12.09988 84.94075 35.01623 -18.94443 -0 0 10.79983 -10.27365 8.124655 8.661828 2.57866 -18.11571 -3.263256 -92.58174 32.64184 20.10343 0 0 -19.20133 -4.394372 14.69765 19.26179
1.641258 98.50515 36.09702 -2.611881 3.022836 2.948023 7.694183 -29.50607 3.472996 -0 15.35049 -0 -8.2176 -4.180622 -3.116306 -3.198843 15.64422 -14.71504 -0 27.27615 -0 -9.544668 -16.38037 8.875276 -1.841892 0.6113615 2.390527 4.347053 6.33062 -7.708901 0.4257804 22.96053 6.514382 3.183236 -25.87135 6.672695 5.593224 -15.94277 12.22999 84.99987 34.91667 -18.92442 -0 0 10.36303 -11.7165 9.193818 9.245512 2.389888 -18.20425 -3.494654 -91.72133 31.61304 19.43646 0 0 -19.65635 -4.124383 13.52154 19.08862
1.46501 98.93943 42.29731 -2.706301 1.153039 2.776614 7.685704 -24.70294 3.111589 -0 17.61801 -0 -9.258369 -6.325912 -4.117054 -2.744156 14.48586 -12.79126 -0 37.15547 -0 -10.62395 -11.66261 8.557272 -1.577273 0.9440729 2.671104 4.155662 6.817295 -7.640507 0.3669818 22.73214 6.618077 3.213928 -25.14808 6.463568 5.578658 -15.77806 12.34594 85.03574 35.0128 -18.86543 -0 0 10.01083 -13.68045 10.7039 9.966516 2.359434 -18.51198 -3.706381 -90.71282 30.3331 18.64741 0 0 -20.39039 -3.594155 12.24676 18.8152
1.223097 99.90431 48.42805 -2.623436 -1.364518 2.087286 7.841995 -19.4851 2.908992 -0 20.34482 -0 -10.53679 -8.389486 -4.740855 -2.6535 11.62345 -11.52355 -0 48.44604 -0 -9.349772 -7.780714 10.19308 -1.271053 1.241922 3.190245 3.746852 7.447249 -7.488608 0.3288421 22.42425 6.742991 3.328079 -24.15514 6.212845 5.654977 -15.66999 12.44593 84.86011 35.40312 -18.53537 -0 0 9.902182 -16.24937 12.64909 10.92193 2.542989 -19.05198 -3.825101 -89.62789 28.72198 17.81519 0 0 -21.28066 -2.711101 11.03988 18.32189
1.134125 101.302 54.17517 -2.111598 -3.045548 1.278187 7.735447 -13.92123 3.002073 -0 20.1259 -0 -10.22778 -9.111195 -4.268946 -2.837156 5.379245 -10.57689 -0 58.02307 -0 -8.001615 -5.774835 11.4305 -1.090579 1.37093 3.873316 3.113215 8.16074 -7.239598 0.3299009 22.11479 6.919212 3.490334 -22.84728 6.040404 5.795941 -15.72493 12.49657 84.45243 35.98414 -17.84628 -0 0 10.26529 -19.36549 14.8349 12.11215 2.920614 -19.68457 -3.837578 -88.63772 27.05384 17.10931 0 0 -22.05776 -1.826597 10.1353 17.78931
1.304529 102.6672 59.63328 -0.7554469 -3.392168 0.6663783 6.480537 -7.280618 3.789408 -0 16.13472 -0 -7.112513 -9.180865 -3.227042 -2.909489 -4.407823 -8.742011 -0 62.43103 -0 -7.968938 -5.034255 11.77565 -1.213334 1.165723 4.49844 2.326295 8.900396 -6.928841 0.4292897 21.97802 7.207346 3.547494 -21.23146 6.280388 5.800372 -16.07597 12.40496 84.33844 36.43467 -17.25362 -0 0 11.11763 -22.59199 16.99547 13.16208 3.40961 -20.21589 -3.788897 -87.9656 25.93103 16.66495 0 0 -22.4914 -1.413525 9.736271 17.50672
1.51526 103.5991 64.98275 0.5410943 -3.908507 0.1110413 4.824703 -0.6788383 3.830887 -0 12.2256 -0 -4.608843 -10.1127 -2.352833 -2.49145 -13.16195 -6.830318 -0 60.774 -0 -7.724059 -4.694641 13.43379 -1.613092 0.6270695 5.057662 1.369201 9.653247 -6.48464 0.6833951 22.10132 7.715956 3.411425 -19.35425 7.255913 5.483522 -16.76862 12.08727 84.94717 36.67298 -17.09584 -0 0 12.37896 -25.64206 19.20267 13.7028 3.989527 -20.53295 -3.64225 -87.87314 25.62102 16.75842 0 0 -22.30189 -1.384668 9.747362 17.37972
1.637513 103.9171 70.26272 0.9245675 -5.099142 -0.4685562 4.222875 4.281624 2.980943 -0 10.20951 -0 -4.413108 -11.48191 -1.981575 -1.468218 -17.94161 -5.699774 -0 54.00352 -0 -6.882695 -5.189677 15.7853 -2.078565 -0.03277662 5.724994 0.1572171 10.2807 -5.709662 1.115337 22.43699 8.554141 3.180151 -17.36459 9.040395 4.842341 -17.59762 11.52438 85.94562 36.6344 -17.02645 -0 0 14.07631 -28.59321 21.64463 13.71732 4.639563 -20.40236 -3.344783 -88.76929 26.02272 17.94533 0 0 -20.76049 -1.592289 9.890835 17.31572
1.767839 103.5885 75.55395 0.7419759 -5.667143 -1.051076 4.284754 8.288589 2.530256 -0 9.152117 -0 -4.16484 -13.38878 -1.643772 0.04226695 -21.66945 -4.675672 -0 44.05372 -0 -6.456312 -6.057835 17.47938 -2.222225 -0.3806596 6.439124 -1.001929 10.48745 -4.719153 1.613504 22.78432 9.46403 3.07987 -15.91278 10.91139 4.158407 -18.04506 10.94715 86.47517 36.06946 -16.644 -0 0 15.77846 -30.90634 23.78437 13.39432 5.12015 -19.67299 -3.076629 -90.61456 26.80487 20.20439 0 0 -17.96519 -2.198579 9.889028 17.67524
2.000495 102.6945 81.0075 0.3349476 -5.329368 -1.634651 4.376161 11.77643 2.525402 -0 8.675347 -0 -3.090945 -15.55249 -1.160845 1.62252 -25.20017 -3.444797 -0 33.44139 -0 -6.268384 -6.456173 18.54649 -1.902763 -0.2403962 7.091675 -1.674269 10.30979 -3.946927 1.971579 22.85821 9.872051 3.20909 -15.48568 11.73796 3.806432 -18.14693 10.71452 85.76273 35.31398 -15.52836 -0 0 17.1361 -32.07644 24.78378 13.25352 5.256562 -18.80914 -2.947511 -92.30804 27.25398 22.46405 0 0 -15.82612 -2.947072 9.864457 18.47975
2.385621 101.4299 86.75783 -0.02905829 -4.444016 -2.220169 4.15295 14.7474 2.66958 -0 9.045036 -0 -1.760946 -17.26225 -0.6792673 2.708804 -27.93228 -2.398157 -0 24.1114 -0 -5.905883 -6.310074 19.19039 -1.42209 0.09360022 7.609186 -1.90688 10.02998 -3.529671 2.163293 22.69688 9.760593 3.368638 -15.74443 11.65614 3.683932 -18.27302 10.75846 84.3919 34.72248 -13.99844 -0 0 18.16683 -32.43504 24.82573 13.42903 5.178553 -18.17845 -2.864839 -93.18863 27.1997 23.99665 0 0 -15.07081 -3.432178 10.00257 19.19781
2.952023 100.0776 92.92626 -0.07641397 -3.292822 -2.783463 3.343218 17.08021 2.821547 -0 10.70112 -0 -0.6534043 -17.62093 -0.2031499 2.805894 -29.5524 -2.062864 -0 17.55957 -0 -5.368341 -5.912204 19.38207 -1.042007 0.3628068 7.937034 -1.912647 9.820721 -3.386468 2.241028 22.49489 9.453893 3.451043 -16.19657 11.27127 3.641169 -18.47666 10.87887 83.25278 34.41212 -12.79395 -0 0 18.83311 -32.27441 24.4385 13.60771 5.056339 -17.8412 -2.778824 -93.51156 27.04079 24.86861 0 0 -15.14081 -3.634278 10.22444 19.63579
3.69588 98.9263 99.59754 0.3604343 -2.427233 -3.272844 1.89634 18.76445 3.023714 -0 14.461 -0 -0.03356621 -15.55732 0.1410951 1.64784 -29.72586 -2.825759 -0 14.82493 -0 -4.789276 -5.757476 19.3165 -0.8063721 0.5298849 8.087786 -1.802288 9.695019 -3.427917 2.236699 22.33799 9.123117 3.488129 -16.65128 10.8197 3.66421 -18.68037 11.00139 82.54779 34.41702 -12.11336 -0 0 19.12127 -31.73568 23.85991 13.64451 4.955506 -17.77047 -2.688177 -93.55032 26.99046 25.25957 0 0 -15.62004 -3.639332 10.47107 19.8525
